<?xml version="1.0" encoding="UTF-8"?>
<!DOCTYPE svg PUBLIC "-//W3C//DTD SVG 1.1//EN" "http://www.w3.org/Graphics/SVG/1.1/DTD/svg11.dtd">
<svg xmlns="http://www.w3.org/2000/svg" version="1.1" width="478px" height="86px" style="shape-rendering:geometricPrecision; text-rendering:geometricPrecision; image-rendering:optimizeQuality; fill-rule:evenodd; clip-rule:evenodd" xmlns:xlink="http://www.w3.org/1999/xlink">
<g><path style="opacity:1" fill="#fefefd" d="M -0.5,-0.5 C 158.833,-0.5 318.167,-0.5 477.5,-0.5C 477.5,28.1667 477.5,56.8333 477.5,85.5C 318.167,85.5 158.833,85.5 -0.5,85.5C -0.5,56.8333 -0.5,28.1667 -0.5,-0.5 Z"/></g>
<g><path style="opacity:1" fill="#ff9797" d="M 259.5,25.5 C 270.988,24.5051 282.655,24.1717 294.5,24.5C 294.737,25.791 294.404,26.791 293.5,27.5C 282.549,25.5223 271.216,24.8556 259.5,25.5 Z"/></g>
<g><path style="opacity:1" fill="#ff9797" d="M 299.5,25.5 C 302.287,24.5233 305.287,24.19 308.5,24.5C 308.737,25.791 308.404,26.791 307.5,27.5C 305.365,25.631 302.698,24.9644 299.5,25.5 Z"/></g>
<g><path style="opacity:1" fill="#21c36d" d="M 20.5,24.5 C 25.5111,24.3341 30.5111,24.5007 35.5,25C 38.9429,26.6179 41.9429,28.7846 44.5,31.5C 42.5398,33.1563 40.5398,34.823 38.5,36.5C 30.6564,30.613 23.4897,31.2797 17,38.5C 15.4702,56.6453 22.8036,61.6453 39,53.5C 40.3582,55.1887 42.0249,56.522 44,57.5C 44.6172,58.4491 44.4506,59.2825 43.5,60C 28.2061,69.6763 16.0395,66.8429 7,51.5C 4.61874,38.9288 9.11874,29.9288 20.5,24.5 Z"/></g>
<g><path style="opacity:1" fill="#1dc26b" d="M 250.5,36.5 C 251.229,41.1304 251.563,45.7971 251.5,50.5C 246.077,62.3815 236.744,67.2148 223.5,65C 208.26,58.3321 204.427,47.4988 212,32.5C 221.378,23.6711 231.878,22.1711 243.5,28C 246.447,30.4356 248.78,33.2689 250.5,36.5 Z"/></g>
<g><path style="opacity:1" fill="#ff3e3b" d="M 328.5,24.5 C 335.549,23.7179 342.216,24.8846 348.5,28C 349.574,28.7387 350.241,29.7387 350.5,31C 349.256,33.3817 347.423,35.215 345,36.5C 340.521,32.7573 335.354,31.5906 329.5,33C 319.26,39.5994 317.927,47.5994 325.5,57C 331.641,58.1872 337.308,57.0205 342.5,53.5C 344.149,54.6477 345.649,55.981 347,57.5C 347.507,58.9961 347.007,60.1627 345.5,61C 337.65,65.7523 329.317,66.7523 320.5,64C 312.527,58.5372 309.693,51.0372 312,41.5C 315.019,33.3156 320.519,27.649 328.5,24.5 Z"/></g>
<g><path style="opacity:1" fill="#23c36d" d="M 89.5,63.5 C 86.7131,64.4767 83.7131,64.81 80.5,64.5C 79.7878,62.0721 78.7878,59.7388 77.5,57.5C 71.1928,56.3361 64.8595,56.1694 58.5,57C 57.7334,58.4705 57.0668,59.9705 56.5,61.5C 55.596,62.209 55.2627,63.209 55.5,64.5C 51.9878,65.0545 48.9878,64.3878 46.5,62.5C 51.4022,50.3648 56.5689,38.3648 62,26.5C 65.4418,24.2666 69.1085,23.9332 73,25.5C 78.7874,38.0714 84.2874,50.7381 89.5,63.5 Z"/></g>
<g><path style="opacity:1" fill="#bfefd7" d="M 102.5,25.5 C 99.8333,25.5 97.1667,25.5 94.5,25.5C 94.5,38.5 94.5,51.5 94.5,64.5C 93.5044,51.3438 93.1711,38.0105 93.5,24.5C 96.7131,24.19 99.7131,24.5233 102.5,25.5 Z"/></g>
<g><path style="opacity:1" fill="#0fc067" d="M 102.5,25.5 C 107.109,33.2825 111.942,40.9492 117,48.5C 122.092,40.9267 126.925,33.26 131.5,25.5C 133.833,25.5 136.167,25.5 138.5,25.5C 138.5,38.5 138.5,51.5 138.5,64.5C 136.167,64.5 133.833,64.5 131.5,64.5C 131.831,56.8045 131.497,49.1378 130.5,41.5C 129.893,41.6236 129.56,41.9569 129.5,42.5C 126.679,47.4727 123.845,52.4727 121,57.5C 119.245,60.3384 116.912,61.005 114,59.5C 110.607,54.2799 107.44,48.9466 104.5,43.5C 104.44,42.9569 104.107,42.6236 103.5,42.5C 102.503,49.8032 102.169,57.1365 102.5,64.5C 99.8333,64.5 97.1667,64.5 94.5,64.5C 94.5,51.5 94.5,38.5 94.5,25.5C 97.1667,25.5 99.8333,25.5 102.5,25.5 Z"/></g>
<g><path style="opacity:1" fill="#19c169" d="M 148.5,24.5 C 156.507,24.3336 164.507,24.5003 172.5,25C 184.386,28.4073 186.386,34.7406 178.5,44C 187.016,49.4406 187.682,55.7739 180.5,63C 169.898,64.4027 159.231,64.9027 148.5,64.5C 148.5,51.1667 148.5,37.8333 148.5,24.5 Z"/></g>
<g><path style="opacity:1" fill="#c3f0d9" d="M 201.5,64.5 C 201.5,51.5 201.5,38.5 201.5,25.5C 198.5,25.5 195.5,25.5 192.5,25.5C 192.5,38.5 192.5,51.5 192.5,64.5C 191.504,51.3438 191.171,38.0105 191.5,24.5C 195.167,24.5 198.833,24.5 202.5,24.5C 202.829,38.0105 202.496,51.3438 201.5,64.5 Z"/></g>
<g><path style="opacity:1" fill="#06c066" d="M 201.5,64.5 C 198.5,64.5 195.5,64.5 192.5,64.5C 192.5,51.5 192.5,38.5 192.5,25.5C 195.5,25.5 198.5,25.5 201.5,25.5C 201.5,38.5 201.5,51.5 201.5,64.5 Z"/></g>
<g><path style="opacity:1" fill="#ff3c3a" d="M 259.5,25.5 C 271.216,24.8556 282.549,25.5223 293.5,27.5C 292.699,29.0418 292.366,30.7085 292.5,32.5C 288.167,32.5 283.833,32.5 279.5,32.5C 277.602,43.3162 275.602,53.9829 273.5,64.5C 270.5,64.5 267.5,64.5 264.5,64.5C 264.5,63.5 264.5,62.5 264.5,61.5C 266.674,52.9601 268.341,44.2934 269.5,35.5C 270.404,34.791 270.737,33.791 270.5,32.5C 266.5,32.5 262.5,32.5 258.5,32.5C 258.5,31.5 258.5,30.5 258.5,29.5C 258.232,27.901 258.566,26.5676 259.5,25.5 Z"/></g>
<g><path style="opacity:1" fill="#ff3a38" d="M 298.5,25.5 C 298.833,25.5 299.167,25.5 299.5,25.5C 302.698,24.9644 305.365,25.631 307.5,27.5C 305.371,38.8116 303.371,50.1449 301.5,61.5C 300.596,62.209 300.263,63.209 300.5,64.5C 297.5,64.5 294.5,64.5 291.5,64.5C 292.219,62.2362 292.552,59.9029 292.5,57.5C 292.5,56.8333 292.5,56.1667 292.5,55.5C 295.375,45.7931 297.375,35.7931 298.5,25.5 Z"/></g>
<g><path style="opacity:1" fill="#ff3d39" d="M 388.5,63.5 C 385.713,64.4767 382.713,64.81 379.5,64.5C 376.022,59.5665 372.522,54.5665 369,49.5C 363.259,52.9195 360.426,57.9195 360.5,64.5C 357.833,64.5 355.167,64.5 352.5,64.5C 352.5,63.5 352.5,62.5 352.5,61.5C 354.342,49.7873 356.509,38.1206 359,26.5C 361.804,24.6556 364.97,23.9889 368.5,24.5C 367.074,30.4522 366.241,36.4522 366,42.5C 372.5,36.6667 379,30.8333 385.5,25C 389.167,24.3333 392.833,24.3333 396.5,25C 389.466,31.0362 382.799,37.3696 376.5,44C 380.63,50.4279 384.63,56.9279 388.5,63.5 Z"/></g>
<g><path style="opacity:1" fill="#ff403c" d="M 408.5,37.5 C 407.566,38.5676 407.232,39.901 407.5,41.5C 413.5,41.5 419.5,41.5 425.5,41.5C 425.007,43.8056 424.674,46.139 424.5,48.5C 418.167,48.5 411.833,48.5 405.5,48.5C 405.5,49.8333 405.5,51.1667 405.5,52.5C 404.549,53.9187 404.216,55.5853 404.5,57.5C 411.5,57.5 418.5,57.5 425.5,57.5C 425.007,59.8056 424.674,62.139 424.5,64.5C 414.5,64.5 404.5,64.5 394.5,64.5C 394.5,63.5 394.5,62.5 394.5,61.5C 396.32,49.4018 398.653,37.4018 401.5,25.5C 411.478,24.5015 421.478,24.1681 431.5,24.5C 430.908,27.1272 430.575,29.7938 430.5,32.5C 423.167,32.5 415.833,32.5 408.5,32.5C 408.5,34.1667 408.5,35.8333 408.5,37.5 Z"/></g>
<g><path style="opacity:1" fill="#ff413d" d="M 468.5,32.5 C 464.167,32.5 459.833,32.5 455.5,32.5C 455.007,34.8056 454.674,37.139 454.5,39.5C 452.454,47.7279 450.788,56.0612 449.5,64.5C 445.988,65.0545 442.988,64.3878 440.5,62.5C 441.503,57.1341 442.503,51.8007 443.5,46.5C 444.117,46.3893 444.617,46.056 445,45.5C 445.497,42.854 445.664,40.1873 445.5,37.5C 445.5,36.8333 445.5,36.1667 445.5,35.5C 446.404,34.791 446.737,33.791 446.5,32.5C 442.5,32.5 438.5,32.5 434.5,32.5C 434.5,31.1667 434.5,29.8333 434.5,28.5C 434.33,27.1779 434.663,26.0113 435.5,25C 446.828,24.5001 458.162,24.3335 469.5,24.5C 469.425,27.2062 469.092,29.8728 468.5,32.5 Z"/></g>
<g><path style="opacity:1" fill="#ffc7c7" d="M 258.5,29.5 C 258.5,30.5 258.5,31.5 258.5,32.5C 262.5,32.5 266.5,32.5 270.5,32.5C 270.737,33.791 270.404,34.791 269.5,35.5C 265.971,33.5772 261.971,32.9106 257.5,33.5C 257.232,31.901 257.566,30.5676 258.5,29.5 Z"/></g>
<g><path style="opacity:1" fill="#ffc6c6" d="M 434.5,28.5 C 434.5,29.8333 434.5,31.1667 434.5,32.5C 438.5,32.5 442.5,32.5 446.5,32.5C 446.737,33.791 446.404,34.791 445.5,35.5C 441.971,33.5772 437.971,32.9106 433.5,33.5C 433.216,31.5853 433.549,29.9187 434.5,28.5 Z"/></g>
<g><path style="opacity:1" fill="#ffcccc" d="M 468.5,32.5 C 464.702,33.4834 460.702,33.8168 456.5,33.5C 456.405,35.7857 455.738,37.7857 454.5,39.5C 454.674,37.139 455.007,34.8056 455.5,32.5C 459.833,32.5 464.167,32.5 468.5,32.5 Z"/></g>
<g><path style="opacity:1" fill="#99e5c0" d="M 169.5,32.5 C 165.833,32.5 162.167,32.5 158.5,32.5C 158.5,35.1667 158.5,37.8333 158.5,40.5C 162.167,40.5 165.833,40.5 169.5,40.5C 165.702,41.4834 161.702,41.8168 157.5,41.5C 157.5,38.1667 157.5,34.8333 157.5,31.5C 161.702,31.1832 165.702,31.5166 169.5,32.5 Z"/></g>
<g><path style="opacity:1" fill="#fbfdfc" d="M 169.5,32.5 C 173.317,33.5335 174.317,35.8668 172.5,39.5C 171.583,40.1272 170.583,40.4606 169.5,40.5C 165.833,40.5 162.167,40.5 158.5,40.5C 158.5,37.8333 158.5,35.1667 158.5,32.5C 162.167,32.5 165.833,32.5 169.5,32.5 Z"/></g>
<g><path style="opacity:1" fill="#f8fdfb" d="M 225.5,32.5 C 238.23,31.2645 243.73,36.9312 242,49.5C 237.767,57.0228 231.6,59.1894 223.5,56C 221.622,54.4571 220.122,52.6238 219,50.5C 216.611,42.6164 218.778,36.6164 225.5,32.5 Z"/></g>
<g><path style="opacity:1" fill="#f2fbf7" d="M 71.5,43.5 C 71.2865,45.1439 71.6198,46.6439 72.5,48C 69.1832,48.4983 65.8499,48.665 62.5,48.5C 63.7871,43.9269 65.6204,39.5936 68,35.5C 69.8448,37.8668 71.0114,40.5335 71.5,43.5 Z"/></g>
<g><path style="opacity:1" fill="#ff9797" d="M 408.5,37.5 C 408.5,38.5 408.5,39.5 408.5,40.5C 414.167,40.5 419.833,40.5 425.5,40.5C 425.5,40.8333 425.5,41.1667 425.5,41.5C 419.5,41.5 413.5,41.5 407.5,41.5C 407.232,39.901 407.566,38.5676 408.5,37.5 Z"/></g>
<g><path style="opacity:1" fill="#93e3bb" d="M 250.5,36.5 C 252.047,38.8066 252.713,41.4733 252.5,44.5C 252.495,46.6965 252.162,48.6965 251.5,50.5C 251.563,45.7971 251.229,41.1304 250.5,36.5 Z"/></g>
<g><path style="opacity:1" fill="#ffbbbb" d="M 298.5,25.5 C 297.375,35.7931 295.375,45.7931 292.5,55.5C 293.882,45.2562 295.882,35.2562 298.5,25.5 Z"/></g>
<g><path style="opacity:1" fill="#6ad9a2" d="M 104.5,43.5 C 103.508,50.6476 103.175,57.9809 103.5,65.5C 100.287,65.81 97.2869,65.4767 94.5,64.5C 97.1667,64.5 99.8333,64.5 102.5,64.5C 102.169,57.1365 102.503,49.8032 103.5,42.5C 104.107,42.6236 104.44,42.9569 104.5,43.5 Z"/></g>
<g><path style="opacity:1" fill="#ff7a76" d="M 445.5,37.5 C 445.664,40.1873 445.497,42.854 445,45.5C 444.617,46.056 444.117,46.3893 443.5,46.5C 443.676,43.2727 444.343,40.2727 445.5,37.5 Z"/></g>
<g><path style="opacity:1" fill="#b2ebcf" d="M 71.5,43.5 C 72.7384,45.2143 73.405,47.2143 73.5,49.5C 69.6286,49.815 65.9619,49.4816 62.5,48.5C 65.8499,48.665 69.1832,48.4983 72.5,48C 71.6198,46.6439 71.2865,45.1439 71.5,43.5 Z"/></g>
<g><path style="opacity:1" fill="#ffd4d3" d="M 425.5,40.5 C 426.368,43.3273 426.368,46.3273 425.5,49.5C 419.167,49.5 412.833,49.5 406.5,49.5C 406.737,50.791 406.404,51.791 405.5,52.5C 405.5,51.1667 405.5,49.8333 405.5,48.5C 411.833,48.5 418.167,48.5 424.5,48.5C 424.674,46.139 425.007,43.8056 425.5,41.5C 425.5,41.1667 425.5,40.8333 425.5,40.5 Z"/></g>
<g><path style="opacity:1" fill="#84e0b3" d="M 171.5,48.5 C 167.167,48.5 162.833,48.5 158.5,48.5C 158.5,51.5 158.5,54.5 158.5,57.5C 162.5,57.5 166.5,57.5 170.5,57.5C 166.366,58.4849 162.032,58.8182 157.5,58.5C 157.5,54.8333 157.5,51.1667 157.5,47.5C 162.363,47.1805 167.03,47.5139 171.5,48.5 Z"/></g>
<g><path style="opacity:1" fill="#fafdfc" d="M 171.5,48.5 C 175.392,49.7423 176.392,52.2423 174.5,56C 173.255,56.7914 171.922,57.2914 170.5,57.5C 166.5,57.5 162.5,57.5 158.5,57.5C 158.5,54.5 158.5,51.5 158.5,48.5C 162.833,48.5 167.167,48.5 171.5,48.5 Z"/></g>
<g><path style="opacity:1" fill="#4bd08d" d="M 131.5,25.5 C 133.948,24.5269 136.615,24.1936 139.5,24.5C 139.5,38.1667 139.5,51.8333 139.5,65.5C 136.5,65.5 133.5,65.5 130.5,65.5C 130.825,57.6484 130.492,49.9818 129.5,42.5C 129.56,41.9569 129.893,41.6236 130.5,41.5C 131.497,49.1378 131.831,56.8045 131.5,64.5C 133.833,64.5 136.167,64.5 138.5,64.5C 138.5,51.5 138.5,38.5 138.5,25.5C 136.167,25.5 133.833,25.5 131.5,25.5 Z"/></g>
<g><path style="opacity:1" fill="#ffcaca" d="M 405.5,52.5 C 405.5,53.8333 405.5,55.1667 405.5,56.5C 412.354,56.176 419.021,56.5093 425.5,57.5C 418.5,57.5 411.5,57.5 404.5,57.5C 404.216,55.5853 404.549,53.9187 405.5,52.5 Z"/></g>
<g><path style="opacity:1" fill="#ffb3b1" d="M 292.5,57.5 C 292.552,59.9029 292.219,62.2362 291.5,64.5C 290.355,62.0467 290.688,59.7134 292.5,57.5 Z"/></g>
<g><path style="opacity:1" fill="#a4e8c7" d="M 56.5,61.5 C 56.5,62.8333 56.5,64.1667 56.5,65.5C 52.8333,65.5 49.1667,65.5 45.5,65.5C 45.2627,64.209 45.596,63.209 46.5,62.5C 48.9878,64.3878 51.9878,65.0545 55.5,64.5C 55.2627,63.209 55.596,62.209 56.5,61.5 Z"/></g>
<g><path style="opacity:1" fill="#9ce6c2" d="M 89.5,63.5 C 90.0431,63.56 90.3764,63.8933 90.5,64.5C 87.0202,65.8056 83.6868,65.8056 80.5,64.5C 83.7131,64.81 86.7131,64.4767 89.5,63.5 Z"/></g>
<g><path style="opacity:1" fill="#ffb5b5" d="M 264.5,61.5 C 264.5,62.5 264.5,63.5 264.5,64.5C 267.5,64.5 270.5,64.5 273.5,64.5C 270.375,65.4794 267.042,65.8128 263.5,65.5C 263.232,63.901 263.566,62.5676 264.5,61.5 Z"/></g>
<g><path style="opacity:1" fill="#ffb6b6" d="M 301.5,61.5 C 301.5,62.8333 301.5,64.1667 301.5,65.5C 297.958,65.8128 294.625,65.4794 291.5,64.5C 294.5,64.5 297.5,64.5 300.5,64.5C 300.263,63.209 300.596,62.209 301.5,61.5 Z"/></g>
<g><path style="opacity:1" fill="#ffa7a6" d="M 352.5,61.5 C 352.5,62.5 352.5,63.5 352.5,64.5C 355.167,64.5 357.833,64.5 360.5,64.5C 357.713,65.4767 354.713,65.81 351.5,65.5C 351.232,63.901 351.566,62.5676 352.5,61.5 Z"/></g>
<g><path style="opacity:1" fill="#ffaaaa" d="M 388.5,63.5 C 389.043,63.56 389.376,63.8933 389.5,64.5C 386.02,65.8056 382.687,65.8056 379.5,64.5C 382.713,64.81 385.713,64.4767 388.5,63.5 Z"/></g>
<g><path style="opacity:1" fill="#ffabab" d="M 394.5,61.5 C 394.5,62.5 394.5,63.5 394.5,64.5C 404.5,64.5 414.5,64.5 424.5,64.5C 414.347,65.4942 404.014,65.8276 393.5,65.5C 393.232,63.901 393.566,62.5676 394.5,61.5 Z"/></g>
<g><path style="opacity:1" fill="#ffb3b3" d="M 440.5,62.5 C 442.988,64.3878 445.988,65.0545 449.5,64.5C 446.375,65.4794 443.042,65.8128 439.5,65.5C 439.263,64.209 439.596,63.209 440.5,62.5 Z"/></g>
</svg>
