<?xml version="1.0" encoding="UTF-8"?>
<svg version="1.1" xmlns="http://www.w3.org/2000/svg" width="500" height="500">
<path d="M0 0 C165 0 330 0 500 0 C500 165 500 330 500 500 C335 500 170 500 0 500 C0 335 0 170 0 0 Z " fill="#FEFEFE" transform="translate(0,0)"/>
<path d="M0 0 C5.81300997 2.50012435 9.14750536 5.95866704 12.0703125 11.546875 C14.27368139 17.45982199 13.99137715 22.79274647 11.4453125 28.54296875 C7.94684069 34.63153724 2.70226175 38.16477964 -3.9296875 40.23046875 C-11.14197783 41.11580978 -16.92161694 40.44569821 -22.9296875 36.23046875 C-27.21379024 32.51757971 -30.55642985 28.88698714 -31.36328125 23.14453125 C-31.37146227 16.25611276 -31.26410734 11.70552539 -26.9296875 6.23046875 C-19.2046146 -1.47394888 -10.54968921 -2.7710517 0 0 Z " fill="#074FAF" transform="translate(253.9296875,229.76953125)"/>
<path d="M0 0 C6.249375 -0.0928125 6.249375 -0.0928125 12.625 -0.1875 C13.92775879 -0.21481201 15.23051758 -0.24212402 16.57275391 -0.27026367 C23.94143104 -0.32331267 28.88951538 -0.02862976 34.375 5.3125 C36.36134528 8.59760951 36.62966542 10.2220075 36 14 C34 16.875 34 16.875 32 19 C32.433125 19.43570313 32.86625 19.87140625 33.3125 20.3203125 C36.00141371 23.19595632 37.81243671 25.16449078 38.6875 29.0625 C37.73966125 33.11235647 35.9533947 35.1122363 33 38 C29.0542052 40.02250192 25.78668763 40.23549486 21.38671875 40.1953125 C20.26225342 40.19031738 19.13778809 40.18532227 17.97924805 40.18017578 C16.56297119 40.16196777 15.14669434 40.14375977 13.6875 40.125 C9.170625 40.08375 4.65375 40.0425 0 40 C0 26.8 0 13.6 0 0 Z " fill="#054DAE" transform="translate(162,229)"/>
<path d="M0 0 C9 0 9 0 10.9453125 1.58203125 C11.33460937 2.31808594 11.72390625 3.05414063 12.125 3.8125 C12.58390625 4.62460938 13.0428125 5.43671875 13.515625 6.2734375 C14.00546875 7.17320312 14.4953125 8.07296875 15 9 C16.28195685 10.98546975 17.57366538 12.96467672 18.875 14.9375 C22 19.74675325 22 19.74675325 22 22 C25.98776696 18.52208453 28.16032946 14.46750278 30.625 9.875 C31.40583734 8.43325785 32.18956865 6.99307828 32.9765625 5.5546875 C33.31768066 4.92030762 33.65879883 4.28592773 34.01025391 3.63232422 C35 2 35 2 37 0 C39.97 0 42.94 0 46 0 C46 13.2 46 26.4 46 40 C42.7 40 39.4 40 36 40 C35.67 33.73 35.34 27.46 35 21 C32.28313235 25.92290403 32.28313235 25.92290403 29.61669922 30.87304688 C27.68396285 34.23200939 26.80305966 35.74904386 23 36.9375 C18.46321498 35.51975468 17.27077703 32.54675063 15.125 28.5 C13.76375 26.025 12.4025 23.55 11 21 C10.67 27.27 10.34 33.54 10 40 C6.7 40 3.4 40 0 40 C0 26.8 0 13.6 0 0 Z " fill="#034CAE" transform="translate(108,229)"/>
<path d="M0 0 C3.63 0 7.26 0 11 0 C15.68727385 8.94261462 19.87291347 18.07145991 23.9375 27.3125 C24.43419189 28.44034912 24.93088379 29.56819824 25.44262695 30.73022461 C29 38.86624694 29 38.86624694 29 40 C25.04 40 21.08 40 17 40 C16.01 37.69 15.02 35.38 14 33 C8.39 32.67 2.78 32.34 -3 32 C-3.66 34.31 -4.32 36.62 -5 39 C-6 40 -6 40 -8.50390625 40.09765625 C-9.51324219 40.08605469 -10.52257812 40.07445312 -11.5625 40.0625 C-12.57441406 40.05347656 -13.58632813 40.04445313 -14.62890625 40.03515625 C-15.41136719 40.02355469 -16.19382813 40.01195312 -17 40 C-14.38574295 31.3020072 -10.58594866 23.17552234 -6.8125 14.9375 C-6.15127953 13.48521409 -5.49046882 12.03274154 -4.83007812 10.58007812 C-3.22476912 7.05121549 -1.61393292 3.52492629 0 0 Z " fill="#054DAE" transform="translate(76,229)"/>
<path d="M0 0 C1.51400391 0.01740234 1.51400391 0.01740234 3.05859375 0.03515625 C4.07050781 0.04417969 5.08242188 0.05320313 6.125 0.0625 C7.29869141 0.07990234 7.29869141 0.07990234 8.49609375 0.09765625 C8.18661704 2.03564146 7.87340541 3.97303051 7.55859375 5.91015625 C7.29755859 7.52857422 7.29755859 7.52857422 7.03125 9.1796875 C6.49609375 12.09765625 6.49609375 12.09765625 5.49609375 15.09765625 C6.6423771 14.09817213 7.78808228 13.09802494 8.93359375 12.09765625 C10.03960937 11.15212891 10.03960937 11.15212891 11.16796875 10.1875 C13.52150506 8.13971032 13.52150506 8.13971032 15.57421875 5.8515625 C18.91669539 2.37910066 21.07817216 0.30410307 25.95703125 -0.40625 C29.17624704 -0.40275844 32.29795829 -0.25824136 35.49609375 0.09765625 C31.30809693 5.27754705 26.76899745 9.68582689 21.765625 14.08203125 C19.93928019 15.70405177 18.21154102 17.3621651 16.49609375 19.09765625 C16.85960937 19.66274902 17.223125 20.2278418 17.59765625 20.81005859 C19.2351471 23.36129033 20.86569089 25.91688961 22.49609375 28.47265625 C23.0684375 29.36210937 23.64078125 30.2515625 24.23046875 31.16796875 C24.771875 32.01875 25.31328125 32.86953125 25.87109375 33.74609375 C26.37382812 34.53161621 26.8765625 35.31713867 27.39453125 36.12646484 C28.49609375 38.09765625 28.49609375 38.09765625 28.49609375 40.09765625 C24.3438857 40.71128305 20.62341074 40.95923367 16.49609375 40.09765625 C13.38337828 37.16327344 11.5845391 33.79170304 9.49609375 30.09765625 C7.92155598 28.33286589 7.92155598 28.33286589 6.49609375 27.09765625 C2.59623801 31.25750237 1.60439628 34.64850216 0.49609375 40.09765625 C-3.13390625 40.09765625 -6.76390625 40.09765625 -10.50390625 40.09765625 C-9.83255585 32.51139676 -8.42990376 25.11312735 -6.91992188 17.65625 C-6.49939584 15.57533712 -6.0872549 13.49287594 -5.67578125 11.41015625 C-5.41065039 10.08714046 -5.14504329 8.76422 -4.87890625 7.44140625 C-4.63914062 6.24708984 -4.399375 5.05277344 -4.15234375 3.82226562 C-3.27305271 0.12765416 -3.27305271 0.12765416 0 0 Z " fill="#A8A8A8" transform="translate(377.50390625,228.90234375)"/>
<path d="M0 0 C10.23 0 20.46 0 31 0 C30.67 2.97 30.34 5.94 30 9 C23.07 9 16.14 9 9 9 C8.67 11.31 8.34 13.62 8 16 C13.61 16 19.22 16 25 16 C25 22 25 22 24 24 C18.06 24 12.12 24 6 24 C5.67 26.31 5.34 28.62 5 31 C11.93 31 18.86 31 26 31 C25.34 33.97 24.68 36.94 24 40 C13.44 40 2.88 40 -8 40 C-5.36 26.8 -2.72 13.6 0 0 Z " fill="#A8A8A8" transform="translate(417,229)"/>
<path d="M0 0 C2.1484375 0.9921875 2.1484375 0.9921875 5.2734375 3.2421875 C5.96875 5.3828125 5.96875 5.3828125 6.2734375 7.2421875 C4.2934375 8.8921875 2.3134375 10.5421875 0.2734375 12.2421875 C-0.3246875 11.9328125 -0.9228125 11.6234375 -1.5390625 11.3046875 C-5.87069362 9.20075239 -9.96304835 8.56301458 -14.7265625 9.2421875 C-18.16608398 11.33580927 -20.50684425 13.36126581 -21.7265625 17.2421875 C-22.0258929 21.43281309 -22.17318971 24.70817042 -19.7265625 28.2421875 C-16.28045344 29.96524203 -12.50194075 29.6216225 -8.7265625 29.2421875 C-5.27310102 27.89472226 -5.27310102 27.89472226 -2.7265625 26.2421875 C-0.7465625 28.5521875 1.2334375 30.8621875 3.2734375 33.2421875 C-3.10459266 39.01278621 -8.31944977 40.7428856 -16.9765625 40.5546875 C-22.7489651 39.89873266 -26.90020855 37.4922656 -30.6640625 33.1171875 C-34.73578224 27.44145695 -34.27987637 22.08242997 -33.7265625 15.2421875 C-32.01342663 8.46602588 -27.51378727 4.79138394 -21.7265625 1.2421875 C-20.83710938 0.67757812 -20.83710938 0.67757812 -19.9296875 0.1015625 C-14.17416387 -2.14349991 -5.90844203 -1.64217443 0 0 Z " fill="#A8A8A8" transform="translate(360.7265625,229.7578125)"/>
<path d="M0 0 C3.71402912 2.17765017 3.71402912 2.17765017 5.234375 4.0234375 C5.234375 5.3434375 5.234375 6.6634375 5.234375 8.0234375 C2.734375 10.2734375 2.734375 10.2734375 0.234375 12.0234375 C-0.36375 11.7140625 -0.961875 11.4046875 -1.578125 11.0859375 C-5.89775782 8.98783013 -10.01482818 8.23779989 -14.765625 9.0234375 C-17.9522753 10.7933198 -17.9522753 10.7933198 -19.765625 14.0234375 C-20.59807077 18.44980781 -20.26559508 21.93259369 -18.390625 26.0234375 C-16.91476469 28.12060427 -16.91476469 28.12060427 -14.765625 29.0234375 C-13.30982913 29.11899167 -11.8495454 29.15328441 -10.390625 29.1484375 C-9.61976562 29.15101563 -8.84890625 29.15359375 -8.0546875 29.15625 C-5.8328061 29.02733538 -3.89943992 28.63727467 -1.765625 28.0234375 C-1.765625 27.3634375 -1.765625 26.7034375 -1.765625 26.0234375 C2.0295881 27.51441408 3.84480231 29.78044599 6.234375 33.0234375 C0.21567363 38.46892922 -4.88642229 40.57998408 -13.1015625 40.40625 C-19.05626302 39.55058922 -24.04847647 36.74058603 -28.265625 32.5234375 C-32.25228747 25.87900005 -32.65958097 19.65431936 -31.765625 12.0234375 C-29.66673195 6.2942702 -26.11545587 2.93095427 -20.765625 0.0234375 C-14.5374605 -2.05261733 -6.23314324 -2.20096866 0 0 Z " fill="#074FAF" transform="translate(51.765625,229.9765625)"/>
<path d="M0 0 C1.47583955 0.0001591 2.95168467 0.00585225 4.42749023 0.01586914 C5.20293686 0.01728409 5.97838348 0.01869904 6.77732849 0.02015686 C9.26361893 0.02577194 11.74982059 0.03832693 14.23608398 0.05102539 C15.91772331 0.05603845 17.59936405 0.06060169 19.28100586 0.06469727 C23.41189965 0.07574626 27.54272674 0.09302094 31.67358398 0.11352539 C31.34358398 3.08352539 31.01358398 6.05352539 30.67358398 9.11352539 C26.38358398 9.11352539 22.09358398 9.11352539 17.67358398 9.11352539 C17.54983398 10.38325195 17.42608398 11.65297852 17.29858398 12.96118164 C16.71321044 18.2223294 15.73406793 23.36771801 14.67358398 28.55102539 C14.49569336 29.44756836 14.31780273 30.34411133 14.13452148 31.26782227 C12.80508288 37.8505276 12.80508288 37.8505276 11.67358398 40.11352539 C8.04358398 40.11352539 4.41358398 40.11352539 0.67358398 40.11352539 C1.24707758 32.84927313 2.46574483 26.05004628 4.23608398 18.98852539 C4.58703125 17.55379883 4.58703125 17.55379883 4.94506836 16.09008789 C5.51518639 13.76307551 6.09351619 11.4380775 6.67358398 9.11352539 C2.71358398 9.11352539 -1.24641602 9.11352539 -5.32641602 9.11352539 C-4.3302225 0.14778374 -4.3302225 0.14778374 0 0 Z " fill="#A9A9A9" transform="translate(455.326416015625,228.886474609375)"/>
<path d="M0 0 C1.47583955 0.0001591 2.95168467 0.00585225 4.42749023 0.01586914 C5.20293686 0.01728409 5.97838348 0.01869904 6.77732849 0.02015686 C9.26361893 0.02577194 11.74982059 0.03832693 14.23608398 0.05102539 C15.91772331 0.05603845 17.59936405 0.06060169 19.28100586 0.06469727 C23.41189965 0.07574626 27.54272674 0.09302094 31.67358398 0.11352539 C31.34358398 3.08352539 31.01358398 6.05352539 30.67358398 9.11352539 C26.38358398 9.11352539 22.09358398 9.11352539 17.67358398 9.11352539 C17.55112305 10.53407227 17.42866211 11.95461914 17.30249023 13.41821289 C16.73449397 19.09817549 15.72305608 24.64330186 14.61108398 30.23852539 C14.42481445 31.19500977 14.23854492 32.15149414 14.04663086 33.13696289 C13.59299954 35.46327733 13.1338752 37.78851954 12.67358398 40.11352539 C8.71358398 40.11352539 4.75358398 40.11352539 0.67358398 40.11352539 C1.48455559 35.69657305 2.29729451 31.27995863 3.11108398 26.86352539 C3.34118164 25.60926758 3.5712793 24.35500977 3.80834961 23.06274414 C4.14189453 21.25483398 4.14189453 21.25483398 4.48217773 19.41040039 C4.68641357 18.30019531 4.89064941 17.18999023 5.10107422 16.04614258 C5.55509527 13.72047058 6.09887765 11.41235074 6.67358398 9.11352539 C2.71358398 9.11352539 -1.24641602 9.11352539 -5.32641602 9.11352539 C-4.3302225 0.14778374 -4.3302225 0.14778374 0 0 Z " fill="#A8A8A8" transform="translate(277.326416015625,228.886474609375)"/>
<path d="M0 0 C3.96 0 7.92 0 12 0 C12 13.2 12 26.4 12 40 C8.04 40 4.08 40 0 40 C0 26.8 0 13.6 0 0 Z " fill="#1156B2" transform="translate(205,229)"/>
<path d="M0 0 C2.83203125 0.03255208 5.6640625 0.06510417 8.49609375 0.09765625 C7.09786516 9.08716167 5.30994225 17.96049422 3.37109375 26.84765625 C3.09394531 28.12898438 2.81679688 29.4103125 2.53125 30.73046875 C1.85538719 33.85342103 1.17695998 36.97579172 0.49609375 40.09765625 C-3.13390625 40.09765625 -6.76390625 40.09765625 -10.50390625 40.09765625 C-9.83255585 32.51139676 -8.42990376 25.11312735 -6.91992188 17.65625 C-6.49939584 15.57533712 -6.0872549 13.49287594 -5.67578125 11.41015625 C-5.41065039 10.08714046 -5.14504329 8.76422 -4.87890625 7.44140625 C-4.63914062 6.24708984 -4.399375 5.05277344 -4.15234375 3.82226562 C-3.27305271 0.12765416 -3.27305271 0.12765416 0 0 Z " fill="#A8A8A8" transform="translate(316.50390625,228.90234375)"/>
<path d="M0 0 C5.53846154 3.07692308 5.53846154 3.07692308 7 6 C7.53118252 10.91996928 7.75105553 14.77327597 5.125 19.0625 C1.59023496 22.28537401 -1.09174402 22.39288048 -5.73828125 22.35546875 C-9.35701199 21.78672178 -10.88030223 19.84834388 -13 17 C-14.21762731 13.34711807 -14.39075851 10.84245864 -14 7 C-10.38566438 0.94463921 -6.9253044 -0.5771087 0 0 Z " fill="#FAFBFD" transform="translate(248,238)"/>
<path d="M0 0 C2.12493141 -0.02693575 4.24995912 -0.04636628 6.375 -0.0625 C7.55835938 -0.07410156 8.74171875 -0.08570313 9.9609375 -0.09765625 C13 0 13 0 15 1 C15.125 3.375 15.125 3.375 15 6 C13 8 13 8 9.9609375 8.1953125 C8.77757812 8.17210937 7.59421875 8.14890625 6.375 8.125 C5.18648437 8.10695313 3.99796875 8.08890625 2.7734375 8.0703125 C1.85820312 8.04710937 0.94296875 8.02390625 0 8 C0 5.36 0 2.72 0 0 Z " fill="#F7F9FC" transform="translate(173,253)"/>
<path d="M0 0 C1.60379341 -0.05416188 3.20811406 -0.09286638 4.8125 -0.125 C5.70582031 -0.14820313 6.59914062 -0.17140625 7.51953125 -0.1953125 C10 0 10 0 13 2 C13.1875 4.625 13.1875 4.625 13 7 C10.35541621 8.32229189 8.32238699 8.09677194 5.375 8.0625 C4.37210938 8.05347656 3.36921875 8.04445312 2.3359375 8.03515625 C1.56507813 8.02355469 0.79421875 8.01195312 0 8 C0 5.36 0 2.72 0 0 Z " fill="#EFF3F9" transform="translate(173,237)"/>
<path d="M0 0 C2.9512645 1.47563225 3.06923915 3.50079352 4.125 6.5625 C4.47820312 7.57441406 4.83140625 8.58632812 5.1953125 9.62890625 C5.46085937 10.41136719 5.72640625 11.19382813 6 12 C2.7 12 -0.6 12 -4 12 C-3.33501617 7.61110675 -1.81242323 4.0188515 0 0 Z " fill="#EDF2F9" transform="translate(81,241)"/>
</svg>
