<?xml version="1.0" standalone="no"?>
<!DOCTYPE svg PUBLIC "-//W3C//DTD SVG 20010904//EN"
 "http://www.w3.org/TR/2001/REC-SVG-20010904/DTD/svg10.dtd">
<svg version="1.0" xmlns="http://www.w3.org/2000/svg"
 width="500.000000pt" height="132.000000pt" viewBox="0 0 500.000000 132.000000"
 preserveAspectRatio="xMidYMid meet">

<g transform="translate(0.000000,132.000000) scale(0.100000,-0.100000)"
fill="#000000" stroke="none">
<path d="M315 731 c-139 -64 -156 -245 -32 -345 37 -30 43 -31 131 -31 87 0
95 2 130 29 l38 29 -30 30 -30 30 -46 -23 c-59 -28 -105 -21 -140 21 -34 40
-36 113 -6 152 38 48 124 54 170 12 15 -13 19 -12 48 18 31 32 32 34 14 50
-53 48 -174 62 -247 28z"/>
<path d="M766 728 c-14 -22 -166 -364 -166 -374 0 -2 23 -4 51 -4 49 0 51 1
67 40 l17 40 88 0 87 0 16 -40 c16 -40 16 -40 71 -40 40 0 54 3 50 13 -23 56
-162 365 -170 375 -5 6 -29 12 -53 12 -34 0 -47 -5 -58 -22z m89 -161 l24 -57
-56 0 c-49 0 -54 2 -48 18 4 9 14 36 22 60 8 24 20 41 25 40 6 -2 21 -29 33
-61z"/>
<path d="M1097 743 c-4 -3 -7 -93 -7 -200 l0 -193 50 0 49 0 3 102 3 102 52
-83 c69 -107 80 -107 148 9 l50 85 3 -108 3 -107 50 0 49 0 -2 198 -3 197 -35
3 c-19 1 -40 -1 -46 -5 -6 -5 -39 -56 -74 -115 -35 -60 -66 -108 -69 -108 -3
0 -35 49 -70 108 -36 59 -70 110 -75 114 -14 10 -70 10 -79 1z"/>
<path d="M1634 736 c-2 -6 -3 -95 -2 -196 l3 -185 110 -3 c189 -6 260 24 260
110 0 32 -6 45 -30 67 l-30 27 22 33 c30 45 29 74 -4 111 -22 24 -41 33 -88
40 -83 14 -235 11 -241 -4z m240 -88 c21 -34 -4 -53 -73 -56 l-61 -3 0 41 0
41 61 -3 c46 -2 65 -8 73 -20z m20 -160 c8 -13 8 -23 0 -35 -9 -14 -28 -19
-83 -21 l-71 -3 0 41 0 41 71 -3 c55 -2 74 -7 83 -20z"/>
<path d="M2075 738 c-3 -8 -4 -97 -3 -198 l3 -185 53 -3 52 -3 -2 198 -3 198
-48 3 c-32 2 -49 -1 -52 -10z"/>
<path d="M2370 734 c-97 -42 -147 -161 -109 -261 28 -75 108 -123 204 -123 73
0 122 20 167 67 35 37 48 73 48 133 0 86 -38 145 -115 181 -49 23 -146 24
-195 3z m159 -90 c57 -40 62 -130 9 -181 -59 -57 -155 -28 -177 54 -12 44 3
97 36 123 32 25 99 27 132 4z"/>
</g>
</svg>
